<svg width="175" height="175" viewBox="0 0 175 175" fill="none" xmlns="http://www.w3.org/2000/svg">
<circle cx="87.5" cy="87.5" r="87.5" fill="black"/>
<path d="M18.9956 109.08C19.5023 106.42 20.769 104.267 22.7956 102.62C24.8223 100.973 27.1656 100.15 29.8256 100.15H81.1256C80.619 102.81 79.3523 104.963 77.3256 106.61C75.4256 108.257 73.0823 109.08 70.2956 109.08H18.9956ZM35.2852 93C35.9518 89.5 37.6185 86.6667 40.2852 84.5C42.9518 82.3333 46.0352 81.25 49.5352 81.25H117.035C116.368 84.75 114.702 87.5833 112.035 89.75C109.535 91.9167 106.452 93 102.785 93H35.2852ZM48.4488 122.48C48.8221 120.52 49.7554 118.933 51.2488 117.72C52.7421 116.507 54.4688 115.9 56.4288 115.9H94.2288C93.8554 117.86 92.9221 119.447 91.4288 120.66C90.0288 121.873 88.3021 122.48 86.2488 122.48H48.4488ZM78.7516 75.6H62.3516C64.2182 65.2 68.6849 60 75.7516 60H81.5516L83.3516 49.2C85.2182 39.0667 89.2182 31.4 95.3516 26.2C101.618 20.8667 109.752 18.2 119.752 18.2C124.818 18.2 128.952 19.2667 132.152 21.4C135.352 23.5333 136.952 26.3333 136.952 29.8C136.952 31.5333 136.485 33.3333 135.552 35.2C134.752 36.9333 133.685 38.3333 132.352 39.4C128.485 36.8667 124.085 35.6 119.152 35.6C114.485 35.6 110.818 36.8 108.152 39.2C105.618 41.4667 103.952 45.0667 103.152 50L101.352 60H126.752C125.818 65.3333 124.018 69.2667 121.352 71.8C118.685 74.3333 114.952 75.6 110.152 75.6H98.7516L85.9516 148.2C85.0182 152.867 82.7516 156.333 79.1516 158.6C75.6849 160.733 70.4849 161.8 63.5516 161.8L78.7516 75.6Z" fill="white"/>
</svg>
