<svg width="118" height="144" viewBox="0 0 118 144" fill="none" xmlns="http://www.w3.org/2000/svg">
<path d="M-0.00437276 91.08C0.502294 88.42 1.76896 86.2667 3.79563 84.62C5.82229 82.9733 8.16563 82.15 10.8256 82.15H62.1256C61.619 84.81 60.3523 86.9633 58.3256 88.61C56.4256 90.2567 54.0823 91.08 51.2956 91.08H-0.00437276ZM16.2852 75C16.9518 71.5 18.6185 68.6667 21.2852 66.5C23.9518 64.3333 27.0352 63.25 30.5352 63.25H98.0352C97.3685 66.75 95.7018 69.5833 93.0352 71.75C90.5352 73.9167 87.4518 75 83.7852 75H16.2852ZM29.4488 104.48C29.8221 102.52 30.7554 100.933 32.2488 99.72C33.7421 98.5067 35.4688 97.9 37.4288 97.9H75.2288C74.8554 99.86 73.9221 101.447 72.4288 102.66C71.0288 103.873 69.3021 104.48 67.2488 104.48H29.4488ZM59.7516 57.6H43.3516C45.2182 47.2 49.6849 42 56.7516 42H62.5516L64.3516 31.2C66.2182 21.0667 70.2182 13.4 76.3516 8.19999C82.6182 2.86666 90.7516 0.19999 100.752 0.19999C105.818 0.19999 109.952 1.26666 113.152 3.4C116.352 5.53333 117.952 8.33333 117.952 11.8C117.952 13.5333 117.485 15.3333 116.552 17.2C115.752 18.9333 114.685 20.3333 113.352 21.4C109.485 18.8667 105.085 17.6 100.152 17.6C95.4849 17.6 91.8182 18.8 89.1516 21.2C86.6182 23.4667 84.9516 27.0667 84.1516 32L82.3516 42H107.752C106.818 47.3333 105.018 51.2667 102.352 53.8C99.6849 56.3333 95.9516 57.6 91.1516 57.6H79.7516L66.9516 130.2C66.0182 134.867 63.7516 138.333 60.1516 140.6C56.6849 142.733 51.4849 143.8 44.5516 143.8L59.7516 57.6Z" fill="white"/>
</svg>
