<svg width="545" height="157" viewBox="0 0 545 157" fill="none" xmlns="http://www.w3.org/2000/svg">
<rect width="545" height="157" fill="#1E1E1E"/>
<path d="M0.452864 91.08C0.959531 88.42 2.2262 86.2667 4.25287 84.62C6.27953 82.9733 8.62286 82.15 11.2829 82.15H62.5829C62.0762 84.81 60.8095 86.9633 58.7829 88.61C56.8829 90.2567 54.5395 91.08 51.7529 91.08H0.452864ZM16.7424 75C17.4091 71.5 19.0757 68.6667 21.7424 66.5C24.4091 64.3333 27.4924 63.25 30.9924 63.25H98.4924C97.8257 66.75 96.1591 69.5833 93.4924 71.75C90.9924 73.9167 87.9091 75 84.2424 75H16.7424ZM29.906 104.48C30.2793 102.52 31.2127 100.933 32.706 99.72C34.1993 98.5067 35.926 97.9 37.886 97.9H75.686C75.3127 99.86 74.3793 101.447 72.886 102.66C71.486 103.873 69.7593 104.48 67.706 104.48H29.906ZM60.2088 57.6H43.8088C45.6755 47.2 50.1421 42 57.2088 42H63.0088L64.8088 31.2C66.6755 21.0667 70.6755 13.4 76.8088 8.19999C83.0755 2.86666 91.2088 0.19999 101.209 0.19999C106.275 0.19999 110.409 1.26666 113.609 3.4C116.809 5.53333 118.409 8.33333 118.409 11.8C118.409 13.5333 117.942 15.3333 117.009 17.2C116.209 18.9333 115.142 20.3333 113.809 21.4C109.942 18.8667 105.542 17.6 100.609 17.6C95.9422 17.6 92.2755 18.8 89.6088 21.2C87.0755 23.4667 85.4088 27.0667 84.6088 32L82.8088 42H108.209C107.275 47.3333 105.475 51.2667 102.809 53.8C100.142 56.3333 96.4088 57.6 91.6088 57.6H80.2088L67.4088 130.2C66.4755 134.867 64.2088 138.333 60.6088 140.6C57.1421 142.733 51.9421 143.8 45.0088 143.8L60.2088 57.6ZM167.374 143.62C161.374 143.62 155.794 142.48 150.634 140.2C145.594 137.92 141.514 134.74 138.394 130.66C135.394 126.58 133.894 121.96 133.894 116.8C133.894 114.88 134.014 113.38 134.254 112.3L139.474 82.78C141.154 73.06 146.074 65.26 154.234 59.38C162.514 53.38 172.414 50.38 183.934 50.38C190.534 50.38 196.354 51.64 201.394 54.16C206.554 56.68 210.514 60.04 213.274 64.24C216.034 68.44 217.414 73.06 217.414 78.1C217.414 80.14 217.294 81.7 217.054 82.78L211.834 112.3C210.754 118.18 208.234 123.52 204.274 128.32C200.434 133.12 195.334 136.9 188.974 139.66C182.614 142.3 175.414 143.62 167.374 143.62ZM169.894 130.12C176.974 130.12 182.974 128.44 187.894 125.08C192.814 121.72 195.754 117.22 196.714 111.58L201.574 83.32C201.814 81.64 201.934 80.32 201.934 79.36C201.934 74.56 200.194 70.78 196.714 68.02C193.354 65.26 188.254 63.88 181.414 63.88C174.334 63.88 168.274 65.68 163.234 69.28C158.314 72.88 155.374 77.56 154.414 83.32L149.554 111.58C149.314 113.26 149.194 114.46 149.194 115.18C149.194 119.74 150.874 123.4 154.234 126.16C157.714 128.8 162.934 130.12 169.894 130.12ZM270.961 64.24C264.361 64.24 258.421 66.22 253.141 70.18C247.981 74.14 244.921 79.06 243.961 84.94L235.681 132.1C234.961 136.06 233.161 139 230.281 140.92C227.401 142.72 223.321 143.62 218.041 143.62L232.081 63.7C233.761 54.82 239.581 50.38 249.541 50.38L247.741 61.36C246.181 62.8 244.501 64.6 242.701 66.76L243.421 67.48C253.261 56.08 263.761 50.38 274.921 50.38C278.521 50.38 281.341 51.16 283.381 52.72C285.541 54.28 286.621 56.44 286.621 59.2C286.621 61.84 285.661 64.42 283.741 66.94C280.501 65.14 276.241 64.24 270.961 64.24ZM364.321 68.16C364.321 71.6267 363.324 74.3133 361.331 76.22C359.337 78.1267 356.477 79.08 352.751 79.08C352.924 73.0133 351.711 68.4633 349.111 65.43C346.597 62.3967 342.481 60.6633 336.761 60.23L331.301 90.65C338.407 92.3833 344.041 94.2467 348.201 96.24C352.361 98.2333 355.394 100.573 357.301 103.26C359.207 105.86 360.161 109.023 360.161 112.75C360.161 118.47 358.557 123.583 355.351 128.09C352.231 132.597 347.811 136.15 342.091 138.75C336.371 141.35 329.697 142.78 322.071 143.04L320.901 150.06C320.554 152.227 319.687 153.873 318.301 155C317.001 156.127 315.311 156.69 313.231 156.69L315.571 143.04C307.077 142.607 300.274 140.613 295.161 137.06C290.047 133.507 287.491 128.957 287.491 123.41C287.491 119.337 288.617 116.13 290.871 113.79C293.124 111.45 296.201 110.28 300.101 110.28C299.754 112.707 299.581 114.44 299.581 115.48C299.581 120.507 301.097 124.493 304.131 127.44C307.164 130.387 311.584 132.163 317.391 132.77L323.111 100.27C313.751 98.1033 307.034 95.3733 302.961 92.08C298.887 88.7 296.851 84.3233 296.851 78.95C296.851 73.5767 298.324 68.7667 301.271 64.52C304.217 60.1867 308.334 56.7633 313.621 54.25C318.994 51.65 325.104 50.22 331.951 49.96L333.251 42.81C333.684 40.73 334.551 39.1267 335.851 38C337.151 36.8733 338.841 36.31 340.921 36.31L338.451 49.96C346.251 50.3933 352.491 52.3 357.171 55.68C361.937 58.9733 364.321 63.1333 364.321 68.16ZM309.331 76.87C309.331 79.9033 310.501 82.33 312.841 84.15C315.181 85.97 319.254 87.66 325.061 89.22L330.131 60.23C323.544 60.6633 318.431 62.31 314.791 65.17C311.151 68.03 309.331 71.93 309.331 76.87ZM347.941 114.96C347.941 111.84 346.554 109.283 343.781 107.29C341.007 105.297 336.197 103.477 329.351 101.83L323.891 132.9C331.517 132.553 337.411 130.82 341.571 127.7C345.817 124.58 347.941 120.333 347.941 114.96ZM403.353 143.62C394.593 143.62 387.453 141.4 381.933 136.96C376.533 132.4 373.833 126.52 373.833 119.32C373.833 112.24 375.573 106 379.053 100.6C382.653 95.08 387.633 90.82 393.993 87.82C400.353 84.7 407.613 83.14 415.773 83.14C427.173 83.14 435.933 87.22 442.053 95.38L442.773 94.66C442.413 94.18 441.213 92.68 439.173 90.16L440.433 82.6C440.673 81.4 440.793 79.78 440.793 77.74C440.793 72.82 439.233 69.22 436.113 66.94C432.993 64.54 428.193 63.34 421.713 63.34C409.353 63.34 399.453 68.32 392.013 78.28C390.453 77.44 389.193 76.3 388.233 74.86C387.393 73.42 386.973 71.98 386.973 70.54C386.973 67.06 388.713 63.76 392.193 60.64C395.793 57.52 400.533 55.06 406.413 53.26C412.293 51.34 418.473 50.38 424.953 50.38C434.793 50.38 442.533 52.66 448.173 57.22C453.813 61.78 456.633 68.02 456.633 75.94C456.633 77.98 456.453 80.08 456.093 82.24L447.273 131.56C446.553 135.64 444.813 138.7 442.053 140.74C439.293 142.66 435.333 143.62 430.173 143.62L431.793 135.16C434.553 132.64 436.173 131.08 436.653 130.48L436.113 129.76C426.753 139 415.833 143.62 403.353 143.62ZM408.393 131.2C416.553 131.2 423.153 129.28 428.193 125.44C433.233 121.6 435.753 116.56 435.753 110.32C435.753 105.76 433.893 102.16 430.173 99.52C426.573 96.88 421.533 95.56 415.053 95.56C407.493 95.56 401.313 97.6 396.513 101.68C391.833 105.64 389.493 110.8 389.493 117.16C389.493 121.96 391.053 125.5 394.173 127.78C397.293 130.06 402.033 131.2 408.393 131.2ZM477.549 27.7C478.389 23.38 480.309 20.08 483.309 17.8C486.309 15.52 490.389 14.38 495.549 14.38L487.089 61.72C484.689 64.12 483.069 65.8 482.229 66.76L482.949 67.48C487.869 62.2 493.389 58.06 499.509 55.06C505.749 51.94 511.989 50.38 518.229 50.38C526.269 50.38 532.689 52.72 537.489 57.4C542.409 62.08 544.869 68.14 544.869 75.58C544.869 77.38 544.689 79.3 544.329 81.34L535.329 132.1C534.609 136.06 532.809 139 529.929 140.92C527.049 142.72 522.969 143.62 517.689 143.62L528.309 82.96C528.669 81.16 528.849 79.54 528.849 78.1C528.849 68.86 523.269 64.24 512.109 64.24C507.669 64.24 503.289 65.2 498.969 67.12C494.769 69.04 491.169 71.62 488.169 74.86C485.289 77.98 483.549 81.34 482.949 84.94L474.669 132.1C473.949 136.06 472.149 139 469.269 140.92C466.389 142.72 462.309 143.62 457.029 143.62L477.549 27.7Z" fill="white"/>
</svg>
